<?xml version="1.0" encoding="UTF-8" standalone="no"?>
<svg width="171px" height="224px" viewBox="0 0 171 224" version="1.1" xmlns="http://www.w3.org/2000/svg" xmlns:xlink="http://www.w3.org/1999/xlink" xmlns:sketch="http://www.bohemiancoding.com/sketch/ns">
    <!-- Generator: Sketch 3.2.2 (9983) - http://www.bohemiancoding.com/sketch -->
    <title>Simplified</title>
    <desc>Created with Sketch.</desc>
    <defs></defs>
    <g id="Page-1" stroke="none" stroke-width="1" fill="none" fill-rule="evenodd" sketch:type="MSPage">
        <g id="Simplified" sketch:type="MSLayerGroup">
            <g id="ant-+-S-2" transform="translate(0.080000, 176.640000)" sketch:type="MSShapeGroup">
                <path d="M138.811517,35.1061011 C138.63781,35.7365111 138.606564,35.8010614 138.198455,36.2091704 C138.056753,36.3508722 137.999155,37.0215928 137.948798,37.2230199 C137.869537,37.5400622 137.926411,37.8292331 137.948798,38.0775475 C137.983078,38.4577806 137.927766,38.9415367 138.126037,39.2217479 C138.240713,39.3838164 138.438596,39.433835 138.560544,39.6201964 C138.747066,39.9052408 138.79591,40.4584527 138.951599,40.833933 C139.061131,41.0980922 139.263918,41.2045958 139.429556,41.3702343 C139.592672,41.5333495 139.626412,41.9345363 139.622169,42.4245876 C139.61832,42.8690625 139.583226,43.386641 139.585076,43.8659947 C139.586579,44.2554594 139.612471,44.6196912 139.699324,44.8989806 C139.798518,45.2179557 140.058533,45.3368515 140.249382,45.5162438 C140.468372,45.7220877 140.667698,45.9527405 140.883714,46.2064196 C141.287987,46.6811791 141.363563,46.8042662 141.758733,46.8889452 C142.153903,46.9736241 142.389571,46.8889452 142.5773,46.8889452 C142.919018,46.8889452 143.062586,46.5447924 143.170055,46.4373229 C143.5244,46.0829776 144.30261,46.0849327 144.456107,45.9576928 C144.609603,45.8304528 144.538252,45.788898 144.680169,45.6469811 C144.867391,45.4597592 145.3408,45.3492395 145.921047,45.2919329 C146.416879,45.2429633 146.990723,45.23285 147.530673,45.2469365 C148.234599,45.2653008 148.880917,45.3247952 149.221661,45.3929442 C149.793527,45.5073172 149.592293,45.9406794 150.311344,46.0844896 C150.590615,46.1403437 150.983508,46.1328596 151.385705,46.1339833 C151.740461,46.1349745 152.102455,46.1426626 152.400101,46.2064196 C153.035195,46.3424596 152.843259,46.6989649 153.303797,46.8553563 C153.740109,47.0035208 154.126659,47.0607177 154.462767,47.0525307 C154.848858,47.0431263 155.168389,46.9474451 155.420329,46.8042662 C155.701153,46.6446723 155.856582,46.3018852 156.238444,46.2064196 C156.63755,46.106643 157.062463,46.0773864 157.501193,46.0799003 C157.962514,46.0825436 158.439111,46.1203133 158.917047,46.1481609 C159.395158,46.1760187 159.874609,46.193947 160.341445,46.1568477 C160.695624,46.1287011 161.042543,46.0688809 161.376107,45.9576928 C161.556165,45.8976734 161.595501,45.6542159 161.855957,45.5162438 C162.214357,45.3263872 162.76045,45.2045722 162.999127,45.1250133 C163.301469,45.0242326 163.254211,44.8176843 163.542798,44.673391 C163.811921,44.5388293 164.198751,44.5040294 164.537469,44.3628991 C164.876187,44.2217687 165.245628,43.7958718 165.59596,43.4455407 C165.694074,43.3474263 166.089427,42.951577 166.414031,42.5846337 C166.738635,42.2176903 166.649398,41.6958381 166.82381,41.3702343 C166.942587,41.1484928 167.231728,41.0717202 167.346164,40.833933 C167.514797,40.4835286 167.470564,39.9584339 167.642542,39.6201964 C167.752332,39.4042681 168.064756,39.3304646 168.164732,39.1262328 C168.337576,38.7731432 168.382235,38.2192425 168.517395,37.9548375 C168.663802,37.6684294 168.946353,37.5366951 169.011358,37.4066857 C169.16199,37.1054214 169.196418,36.5836194 169.216001,36.0534301 C169.23683,35.4895055 169.240866,34.9160924 169.350074,34.5884691 C169.469774,34.2293693 169.81581,34.2906902 169.971058,33.7685027 C170.126306,33.2463152 169.678613,32.7676354 169.40929,32.4983129 C169.209305,32.2983273 169.341035,31.4437653 168.57385,30.8470659 C168.319811,30.6494805 168.456555,30.0086667 168.164732,29.6053234 C167.993437,29.3685691 167.724169,29.2856739 167.642542,29.0407946 C167.455896,28.4808568 167.609275,28.4279622 167.346164,27.982304 C167.124194,27.6063293 166.62278,27.1459759 166.287673,26.8554088 C165.944635,26.5579643 165.711054,26.2484947 165.454331,26.0064531 C165.144628,25.7144613 165.045061,25.484594 164.678766,25.2711034 C164.34227,25.0749805 163.922398,25.0466617 163.542798,24.8773955 C163.194478,24.7220773 163.083972,24.3552062 162.507536,24.2281877 C161.9311,24.1011693 161.486505,24.2278936 161.023442,24.0729418 C160.683926,23.9593313 160.613722,23.5600169 160.247214,23.4378478 C159.788032,23.284787 159.142879,23.3079033 158.470122,23.3479115 C157.944612,23.379163 157.40226,23.4207213 156.918545,23.3966683 C156.540507,23.3778701 156.198284,23.318997 155.927908,23.1838091 C155.706656,23.0731829 155.491061,22.6254308 154.912418,22.5487133 C154.333776,22.4719957 153.815269,22.5408899 153.477743,22.3953734 C153.162857,22.2596177 153.059763,21.8669612 152.90768,21.8289403 C152.619885,21.7569915 152.344296,21.7089837 152.079711,21.6777671 C151.723489,21.6357386 151.387213,21.6241467 151.067951,21.6255422 C150.539712,21.6278512 150.05805,21.6657143 149.609675,21.6600961 C149.164256,21.6545149 148.751688,21.606024 148.358942,21.4371413 C147.975987,21.272469 147.898826,21.0950527 147.20865,20.4176183 C146.996476,20.2093614 146.799175,20.0264466 146.620482,19.8623133 C146.217909,19.4925413 145.909784,19.2180944 145.738826,18.9639568 C145.491984,18.5970134 145.583581,18.1453902 145.368182,17.7925597 C145.152783,17.4397292 145.165926,17.7984953 144.896094,16.9889995 C144.810593,16.7324952 145.287599,16.6014434 145.368182,16.2988237 C145.639372,15.2804067 145.643957,15.1850966 146.165982,14.6594246 C146.360127,14.4639228 146.490629,13.4976765 146.72609,13.2622164 C146.958739,13.0295674 147.222439,12.8230921 147.459269,12.5905543 C147.691908,12.3621314 147.898621,12.1085601 148.024506,11.7803283 C148.278545,11.1179515 147.982167,11.0791053 148.358942,10.9053089 C148.735717,10.7315125 148.771309,11.160942 149.221661,11.3992716 C149.504567,11.5489873 149.822314,11.5203687 150.197941,11.5545166 C150.54641,11.5861956 151.129297,11.5778787 151.716397,11.5676281 C152.606024,11.5520956 153.505322,11.5321234 153.61334,11.6401409 C153.766508,11.7933085 153.971577,12.0864654 154.206096,12.2037249 C154.698315,12.4498344 155.30673,12.4266608 155.920073,12.3855933 C156.614755,12.3390797 157.315759,12.2696115 157.86142,12.5424421 C157.984728,12.6040962 158.233373,12.9583493 158.341468,13.0123969 C159.024284,13.3538048 159.278204,13.2615788 159.639685,13.4588758 C159.942308,13.6240473 160.113559,13.8965364 160.486478,14.2710927 C160.686801,14.4722946 160.886652,14.685981 161.1847,14.9840285 C161.365783,15.1651113 161.695765,15.5370768 162.058957,15.9326287 C162.26739,16.1596336 162.486761,16.3944067 162.695202,16.6053267 C162.98153,16.8950608 163.247234,17.1397848 163.435633,17.2575338 C164.000162,17.6103643 164.021282,17.325205 164.339387,17.4115026 C164.810238,17.5392378 165.264047,17.4414623 165.657123,17.1984805 C165.99567,16.9892063 166.289166,16.6722189 166.509697,16.2988237 C166.701958,15.973295 166.74103,15.4880551 166.734104,14.9139927 C166.728084,14.4149938 166.68731,13.8488822 166.682182,13.2622164 C166.679036,12.9023848 166.695197,12.5006898 166.687695,12.1294325 C166.677432,11.6215405 166.622882,11.170613 166.414031,10.9617617 C166.128028,10.6757592 166.159076,10.7905709 165.962407,10.3972329 C165.856212,10.1848444 165.924877,9.59242206 165.454331,9.16938297 C164.983785,8.74634388 164.974481,8.36180797 164.452292,8.26613685 C164.066307,8.19542002 163.685223,8.14909852 163.306397,8.12011209 C162.791973,8.08075023 162.281711,8.07335435 161.768994,8.08024528 C161.296026,8.08660196 160.820969,8.10511607 160.338626,8.12190977 C159.851417,8.13887291 159.356775,8.15408076 158.849345,8.15323116 C158.30471,8.15231927 157.5235,8.19792475 157.02874,8.07423488 C156.478673,7.93671794 156.410757,7.53795352 155.927908,7.3770041 C155.448624,7.21724255 154.659909,7.3770041 153.7078,7.27887313 C153.241169,7.23077885 153.177424,6.91365194 152.90768,6.7284576 C152.637688,6.54309314 152.23055,6.41794086 151.566924,6.47441966 C151.12078,6.51238933 150.83207,6.57321218 150.371953,7.12362771 C149.802771,7.36355241 149.279692,7.3710543 149.012431,7.50468461 C148.879089,7.94916158 148.434746,8.09334816 147.953018,8.15070193 C147.364023,8.22082663 146.719139,8.16114322 146.518475,8.36180796 C146.394821,8.48546169 146.314956,8.65382226 146.165982,8.80279659 C145.948678,9.02010087 145.440191,8.89079158 145.130308,9.04573276 C144.88043,9.17067194 144.66026,9.44863746 144.456107,9.65279072 C144.346843,9.76205412 143.798172,9.67084492 143.304335,10.0297316 C142.810498,10.3886184 142.157865,11.0432512 142.08985,11.1355582 C141.957628,11.3150011 141.643424,11.5108743 141.5439,11.7099224 C141.102752,12.5922176 141.357822,12.4703809 141.236493,12.6980144 C141.176405,12.8107505 141.061358,13.0475396 140.650022,13.4588759 C140.642454,13.4664439 140.475326,13.8671445 140.479441,14.2710924 C140.483232,14.6433395 140.496244,15.0055832 140.409424,15.1792235 C140.115401,15.7672686 140.079292,15.5288997 139.848007,15.9935344 C139.757941,16.1744701 139.58036,16.6889278 139.699324,16.9889992 C139.885854,17.4594979 140.374476,17.9028886 140.409424,18.0776274 C140.47668,18.413908 140.479334,18.662833 140.479441,19.1170398 C140.479569,19.6665979 140.739019,19.9621383 141.05337,20.2266245 C141.344686,20.4717288 141.683151,20.6901635 141.906073,21.0593792 C142.369547,21.8270067 142.205884,22.3311986 142.369547,22.3953734 C142.760603,22.5487133 143.328866,22.4966556 143.600649,22.768438 C143.883821,23.05161 143.832385,23.9995403 144.093089,24.0729418 C144.78673,24.2682369 144.91845,24.3326604 145.266426,24.4485295 C145.614403,24.5643987 145.688025,24.9264879 146.165982,25.3320262 C146.643938,25.7375646 146.888584,26.0064531 147.20865,26.3748412 C147.473576,26.6797634 147.82896,26.7022626 148.178513,26.7926507 C148.453283,26.863701 148.724449,26.9766989 148.945247,27.3017888 C149.105281,27.5374137 149.59224,27.5897622 150.174708,27.5910411 C150.625689,27.5920313 151.133927,27.5624062 151.592007,27.5635302 C152.05168,27.5646582 152.460847,27.5967494 152.71097,27.7218108 C153.119776,27.9262138 152.94786,27.9045245 153.190169,28.1468334 C153.503682,28.460346 154.073659,28.4569839 154.654062,28.4357353 C155.185456,28.416281 155.72559,28.3818333 156.085636,28.5618566 C156.437966,28.7380211 156.369805,28.9284363 156.940166,29.2136168 C157.074324,29.280696 157.497264,29.267697 157.908848,29.2925183 C158.186808,29.3092812 158.459588,29.3432935 158.634741,29.4308696 C159.069248,29.6481224 159.03255,29.8598897 159.195756,29.9142919 C159.579797,30.0423054 160.386616,30.1669654 160.609554,30.3899032 C160.99896,30.7793095 161.359188,31.2508628 161.647319,31.5165013 C161.987582,31.8302031 162.21238,32.061759 162.332537,32.513503 C162.403703,32.7810623 162.438162,33.1258629 162.438162,33.6107207 C162.438162,34.0186619 162.452837,34.7374085 162.226661,34.9635845 C162.099415,35.0908296 161.34304,35.1740848 161.184699,35.2532555 C160.803153,35.4440287 160.436636,35.8990815 160.126547,36.2091704 C159.841794,36.4939233 159.179177,37.2442251 158.849344,37.5271727 C158.562323,37.7733947 157.94583,37.6887831 157.649859,37.8458129 C157.288559,38.0375035 157.304334,38.2294232 157.028739,38.3672203 C156.779615,38.4917827 156.349232,38.5325445 155.869915,38.5444681 C155.482441,38.554107 155.062988,38.5449005 154.68146,38.5458838 C154.13189,38.5473002 153.66101,38.5698593 153.477742,38.7003405 C153.089172,38.9769904 153.019202,39.246292 152.448725,39.3350424 C152.181539,39.3766091 151.804564,39.3785708 151.233648,39.3231334 C150.418741,39.2440039 150.596106,38.8596605 150.197941,38.7003405 C150.029005,38.632743 149.680384,38.5953741 149.321033,38.5608198 C148.833433,38.5139334 148.326079,38.4722292 148.22107,38.3672203 C147.962814,38.1089646 148.045898,38.0767299 147.786563,37.9548375 C147.475527,37.8086441 146.977945,37.7125517 146.606729,37.4677074 C146.218796,37.2118372 145.84714,36.8106482 145.465167,36.4029632 C145.176871,36.0952613 144.882699,35.7838589 144.571216,35.5284429 C144.330387,35.3309627 143.73117,35.1690929 143.304335,35.0360027 C142.8775,34.9029125 143.0809,34.0577784 142.873936,33.8154271 C142.600667,33.4954338 142.148359,33.3790233 141.446919,33.4138815 C141.04774,33.4337188 140.567878,33.5025458 139.994415,33.6107207 C139.62487,33.6804296 139.617843,34.0945714 138.951599,34.5884691 L138.811517,35.1061011 Z" id="S" fill="#DBB455"></path>
                <path d="M25.6185414,31.9447266 L25.6185414,31.1003906 L25.388268,30.4095703 L24.9277211,30.0257812 L24.5439321,29.5652344 L24.0833852,29.1814453 L23.6995961,28.7208984 L23.0087758,28.490625 L22.1453678,28.490625 L21.1512711,28.490625 L20.475768,28.490625 L19.8617055,28.7208984 L19.4779164,29.1814453 L18.7870961,29.3349609 L17.5478579,29.3349609 L16.669907,29.3349609 L16.0024971,29.3349609 L15.3349802,29.3349609 L14.5654164,29.3349609 L13.9513539,29.5652344 L13.5675649,30.0257812 L12.8767446,30.1792969 L12.0324086,30.1792969 L11.4183461,30.4095703 L11.0345571,30.8701172 L10.3437367,31.0236328 L9.72967424,31.2539062 L9.34588518,31.7144531 L8.8853383,32.0982422 L8.50154924,32.5587891 L8.04100237,32.9425781 L7.88748674,33.6333984 L7.6572133,34.2474609 L7.19666643,34.63125 L7.0431508,35.3220703 L7.0431508,36.1664062 L7.19666643,36.7804687 L7.6572133,37.1642578 L8.04100237,37.6248047 L8.50154924,38.0085937 L8.8853383,38.4691406 L9.34588518,38.8529297 L9.72967424,39.3134766 L10.3437367,39.4669922 L11.4725961,39.4669922 L12.3122961,39.4669922 L12.8743818,39.4669922 L13.6496873,39.4669922 L14.5398528,39.4669922 L15.4097524,39.4669922 L16.1005727,39.3134766 L16.4843617,38.8529297 L17.0984242,38.6226562 L17.7892446,38.4691406 L18.1730336,38.0085937 L18.6335805,37.6248047 L19.0173696,37.1642578 L19.6314321,36.9339844 L20.3222524,36.7804687 L20.7060414,36.3199219 L21.3201039,36.0896484 L22.0109242,35.9361328 L22.3947133,35.4755859 L23.0087758,35.2453125 L23.6995961,35.0917969 L23.9298696,34.4777344 L24.0833852,33.7869141 L24.5439321,33.403125 L24.9277211,32.9425781 L25.388268,32.5587891 L25.6185414,31.9447266 Z M37.5927602,43.9189453 L37.2089711,44.3794922 L36.7484242,44.7632813 L36.3646352,45.2238281 L35.6738149,45.3773438 L35.0597524,45.6076172 L34.6759633,46.0681641 L33.985143,46.2216797 L33.395172,46.2216797 L32.4874219,46.2216797 L31.4521352,46.2216797 L30.8380727,46.0681641 L30.4542836,45.6076172 L29.7634633,45.3773438 L29.1494008,45.2238281 L28.7656117,44.7632813 L28.3050649,44.3794922 L27.9212758,43.9189453 L27.2304555,43.6886719 L26.616393,43.5351563 L26.2326039,43.0746094 L25.7720571,43.0746094 L25.388268,43.5351563 L24.6974477,43.6886719 L23.8531117,43.6886719 L23.2390492,43.9189453 L22.8552602,44.3794922 L22.1644399,44.5330078 L21.5503774,44.7632813 L21.1665883,45.2238281 L20.475768,45.3773438 L19.6314321,45.3773438 L19.0173696,45.6076172 L18.6335805,46.0681641 L17.9427602,46.2216797 L17.1279087,46.2216797 L16.2540883,46.2216797 L15.6400258,46.4519531 L15.2562367,46.9125 L14.7956899,46.9125 L14.4119008,46.4519531 L13.7210805,46.2216797 L12.7926837,46.2216797 L12.01698,46.2216797 L11.36469,46.2216797 L10.48491,46.2216797 L9.4994008,46.2216797 L8.8853383,46.0681641 L8.50154924,45.6076172 L7.81072893,45.3773438 L7.19666643,45.2238281 L6.81287737,44.7632813 L6.12205705,44.5330078 L5.50799455,44.3794922 L5.12420549,43.9189453 L4.66365862,43.5351563 L4.27986955,43.0746094 L3.81932268,42.6908203 L3.43553362,42.2302734 L2.97498674,41.8464844 L2.59119768,41.3859375 L2.1306508,41.0021484 L1.97713518,40.3880859 L1.74686174,39.6972656 L1.28631487,39.3134766 L1.13279924,38.6994141 L1.13279924,37.8550781 L0.902525804,37.1642578 L0.441978929,36.7804688 L0.288463304,36.1664063 L0.288463304,35.2521433 L0.288463304,34.3970875 L0.288463304,33.6333984 C0.288463304,33.5008705 0.441978929,32.9425781 0.441978929,32.9425781 L0.902525804,32.5587891 L1.13279924,31.9447266 L1.13279924,31.1003906 L1.28631487,30.4095703 L1.74686174,30.0257813 L1.97713518,29.4117188 L2.1306508,28.7208984 L2.59119768,28.3371094 L2.97498674,27.8765625 L3.43553362,27.4927734 L3.81932268,27.0322266 L4.27986955,26.6484375 L4.66365862,26.1878906 L5.27772112,25.9576172 L6.12205705,25.9576172 L6.81287737,25.8041016 L7.19666643,25.3435547 L7.81072893,25.1132813 L8.65506487,25.1132813 L9.34588518,24.9597656 L9.72967424,24.4992188 L10.3437367,24.2689453 L10.9370585,24.2689453 L11.6695294,24.2689453 L12.1244404,24.2689453 L12.7890925,24.2689453 L13.7210805,24.2689453 C13.9566084,24.2689453 14.4119008,24.1154297 14.4119008,24.1154297 L14.7956899,23.6548828 L15.4097524,23.4246094 L15.8914929,23.4246094 L16.3780342,23.4246094 L16.7165068,23.4246094 L17.3264618,23.4246094 L17.9427602,23.4246094 C18.1782881,23.4246094 18.6335805,23.2710938 18.6335805,23.2710938 L19.0173696,22.8105469 L19.6314321,22.5802734 L20.1258875,22.5802734 L20.6556616,22.5802734 L21.3026338,22.5802734 L22.4916732,22.5802734 L23.4347831,22.5802734 L23.8531117,22.5802734 L24.5439321,22.4267578 L24.9277211,21.9662109 L25.388268,21.5824219 L25.7720571,21.121875 L26.3861196,20.8916016 L27.0769399,20.7380859 L27.3072133,20.1240234 L27.3072133,19.3201067 L27.3072133,18.4353516 L27.0769399,17.7445313 L26.616393,17.3607422 L26.616393,16.9001953 L27.0769399,16.5164063 L27.0769399,16.0558594 L26.616393,15.6720703 L26.4628774,15.0580078 L26.2326039,14.3671875 L25.7720571,13.9833984 L25.388268,13.5228516 L24.9277211,13.1390625 L24.5439321,12.6785156 L23.8531117,12.4482422 L23.0087758,12.4482422 L22.3947133,12.2947266 L22.0109242,11.8341797 L21.5503774,11.8341797 L21.1665883,12.2947266 L20.475768,12.4482422 L19.5356151,12.4482422 L18.6789018,12.4482422 L18.1006461,12.4482422 L17.4906911,12.4482422 L16.8692027,12.4482422 L16.2962649,12.4482422 L15.7558552,12.4482422 L15.1644088,12.4482422 L14.5654164,12.4482422 L13.9513539,12.6785156 L13.5675649,13.1390625 L13.107018,13.5228516 L12.7232289,13.9833984 L12.2626821,14.3671875 L12.1091664,15.0580078 L12.1091664,15.7020899 L12.1091664,16.694579 L12.1091664,17.5910156 L11.878893,18.2050781 L11.4183461,18.5888672 L11.0345571,19.0494141 L10.5740102,19.4332031 L10.1902211,19.89375 L9.4994008,20.0472656 L8.6444784,20.0472656 L7.81072893,20.0472656 L7.19666643,19.89375 L6.81287737,19.4332031 L6.12205705,19.2029297 L5.50799455,19.0494141 L5.12420549,18.5888672 L4.66365862,18.2050781 L4.51014299,17.5910156 L4.51014299,16.7466797 L4.27986955,16.0558594 L3.81932268,15.6720703 L3.66580705,15.0580078 L3.66580705,14.2136719 L3.81932268,13.5228516 L4.27986955,13.1390625 L4.51014299,12.525 L4.66365862,11.8341797 L5.12420549,11.4503906 L5.50799455,10.9898438 L5.96854143,10.6060547 L6.35233049,10.1455078 L6.96639299,9.91523438 L7.6572133,9.76171875 L8.04100237,9.30117188 L8.65506487,9.07089844 L9.34588518,8.91738281 L9.72967424,8.45683594 L10.3437367,8.2265625 L10.9890621,8.2265625 L11.4361001,8.2265625 L11.9428075,8.2265625 L12.2681583,8.2265625 L12.9549793,8.2265625 L13.7210805,8.2265625 L14.4119008,8.07304688 L14.7956899,7.6125 L15.2562367,7.6125 L15.6400258,8.07304688 L16.2540883,8.2265625 L16.960917,8.2265625 L17.4915199,8.2265625 L18.029098,8.2265625 L18.7932683,8.2265625 L19.6314321,8.2265625 L20.3222524,8.45683594 L20.7060414,8.91738281 L21.3201039,9.07089844 L22.0440828,9.07089844 L22.879456,9.07089844 L23.8531117,9.07089844 C24.0950474,9.07089844 24.5439321,9.30117188 24.5439321,9.30117188 L24.9277211,9.76171875 L25.5417836,9.91523438 L26.2326039,10.1455078 L26.616393,10.6060547 L27.0769399,10.9898438 L27.4607289,11.4503906 L27.9212758,11.8341797 L28.3050649,12.2947266 L28.7656117,12.6785156 L29.1494008,13.1390625 L29.6099477,13.5228516 L29.8402211,14.2136719 L29.9937367,14.8277344 L30.4542836,15.2115234 L30.6845571,15.9023438 L30.6845571,16.5032774 C30.6845571,16.7271532 30.6845571,16.951029 30.6845571,17.1749048 L30.6845571,17.8765741 L30.6845571,18.5420549 L30.6845571,19.1652008 C30.6845571,19.7091147 30.6845571,20.1240234 30.6845571,20.1240234 L30.8380727,20.7380859 L31.2986196,21.121875 L31.528893,21.8126953 L31.528893,22.6060737 C31.528893,22.862869 31.528893,23.1196643 31.528893,23.3764596 L31.528893,24.110588 C31.528893,24.3770742 31.528893,24.6555846 31.528893,24.943475 L31.528893,25.8874136 L31.528893,26.7741689 C31.528893,27.0744041 31.528893,27.3746394 31.528893,27.6748747 L31.528893,28.5871138 L31.528893,29.2621252 L31.528893,30.0192512 C31.528893,30.2644768 31.528893,30.5128063 31.528893,30.7612527 L31.528893,31.5916534 L31.528893,32.2756429 L31.528893,33.1500361 L31.528893,33.8138594 L31.528893,34.5533746 C31.528893,35.0310778 31.528893,35.3220703 31.528893,35.3220703 L31.6824086,35.9361328 L32.1429555,36.3199219 L32.5267446,36.7804688 L32.9872914,37.1642578 L33.3710805,37.6248047 L33.985143,37.7783203 L34.6759633,38.0085938 L35.0597524,38.4691406 L35.6738149,38.6226563 L36.3646352,38.8529297 L36.7484242,39.3134766 L37.3624867,39.4669922 L38.0533071,39.6972656 L38.2835805,40.3880859 L38.2835805,41.0212323 L38.2835805,42.0753937 L38.2835805,42.9210938 L38.0533071,43.5351563 L37.5927602,43.9189453 Z M87.4181857,40.5416016 L87.2646701,41.2324219 L87.0343966,41.8464844 L86.5738497,42.2302734 L86.1900607,42.6908203 L85.7295138,43.0746094 L85.3457247,43.5351563 L84.6549044,43.6886719 L84.0408419,43.9189453 L83.6570529,44.3794922 L82.9662326,44.5330078 L82.3828191,44.5330078 L81.7615463,44.5330078 L81.1493993,44.5330078 L80.3991122,44.5330078 L79.7698767,44.5330078 L79.2674188,44.5330078 L78.5992642,44.5330078 L77.9471246,44.5330078 L77.2597342,44.5330078 L76.6694177,44.5330078 L76.158997,44.5330078 L75.584606,44.5330078 L75.0341926,44.5330078 L74.507757,44.5330078 L74.2712009,44.5330078 L73.7096039,44.5330078 L72.8342013,44.5330078 C72.868641,44.5000413 72.2201388,44.3794922 72.2201388,44.3794922 L71.8363497,43.9189453 L71.3758029,43.5351563 L71.2222872,42.9210938 L70.9920138,42.2302734 L70.5314669,41.8464844 L70.3779513,41.2324219 L70.5314669,40.5416016 L70.9920138,40.1578125 L71.3758029,39.6972656 L71.8363497,39.3134766 L72.2201388,38.8529297 L72.6806857,38.4691406 L73.0644747,38.0085938 L73.6785372,37.7783203 L74.3693576,37.6248047 L74.7531466,37.1642578 L75.2136935,36.7804688 L75.5974826,36.3199219 L76.0580294,35.9361328 L76.2883029,35.3220703 L76.2883029,34.4777344 L76.4418185,33.7869141 L76.9023654,33.403125 L77.1326388,32.7890625 L77.1326388,32.0586517 L77.1326388,31.1347947 L77.1326388,30.0680557 L77.1326388,29.2630136 L77.1326388,28.3870225 L77.1326388,27.5049475 L77.1326388,26.6028315 L77.1326388,25.7716644 L77.1326388,24.8237403 L77.1326388,23.9217138 L77.1326388,23.0904572 L77.1326388,22.1313494 L77.1326388,21.1642789 L77.1326388,20.2382747 L77.1326388,19.5429215 L77.1326388,18.9216488 L77.1326388,18.1794139 L77.1326388,17.5910156 L77.2861544,16.9001953 L77.7467013,16.5164063 L77.9769747,15.9023438 L77.7467013,15.2115234 L77.2861544,14.8277344 L77.1326388,14.2136719 L76.9023654,13.5228516 L76.4418185,13.1390625 L76.0580294,12.6785156 L75.3672091,12.4482422 L74.7531466,12.2947266 L74.3693576,11.8341797 L73.6785372,11.6039063 L73.0644747,11.4503906 L72.6806857,10.9898438 L71.9898654,10.7595703 L71.2135081,10.7595703 L70.288488,10.7595703 L69.7711782,10.7595703 L69.0539946,10.7595703 L68.2968184,10.7595703 L67.5658566,10.7595703 L66.9045912,10.7595703 L66.0795138,10.7595703 C66.1163893,10.810201 65.4654513,10.9898438 65.4654513,10.9898438 L65.0816622,11.4503906 L64.3908419,11.6039063 L63.7767794,11.8341797 L63.6232638,12.525 L63.3929904,13.1390625 L62.9324435,13.5228516 L62.5486544,13.9833984 L62.0881076,14.3671875 L61.7043185,14.8277344 L61.2437716,15.2115234 L61.090256,15.9023438 L60.8599826,16.5164063 L60.3994357,16.9001953 L60.0156466,17.3607422 L59.5550997,17.7445313 L59.4015841,18.4353516 L59.1713107,19.0494141 L58.7107638,19.4332031 L58.5572482,20.1240234 L58.3269747,20.7380859 L57.8664279,21.121875 L57.7129122,21.8126953 L57.4826388,22.4267578 L57.0220919,22.8105469 L56.8685763,23.5013672 L56.8685763,23.9897102 L56.8685763,24.698931 L56.8685763,25.6548179 L56.8685763,26.3251197 L56.8685763,27.0902587 L56.8685763,27.8004637 L56.8685763,28.5673828 L57.0220919,29.1814453 L57.4826388,29.5652344 L57.7129122,30.2560547 L57.7129122,31.1003906 L57.4826388,31.7144531 L57.0220919,32.0982422 L56.8685763,32.7890625 L57.0220919,33.403125 L57.4826388,33.7869141 L57.7129122,34.4777344 L57.7129122,35.3220703 L57.8664279,35.9361328 L58.3269747,36.3199219 L58.7107638,36.7804688 L59.1713107,37.1642578 L59.5550997,37.6248047 L60.1691622,37.7783203 L60.8599826,38.0085938 L61.2437716,38.4691406 L61.7043185,38.8529297 L62.0881076,39.3134766 L62.5486544,39.6972656 L62.7789279,40.3880859 L62.9324435,41.0021484 L63.3929904,41.3859375 L63.3929904,41.8464844 L62.9324435,42.2302734 L62.7789279,42.9210938 L62.5486544,43.5351563 L61.8578341,43.6886719 L61.2437716,43.9189453 L60.8599826,44.3794922 L60.1691622,44.5330078 L59.3248263,44.5330078 L58.7107638,44.7632813 L58.3269747,45.2238281 L57.8664279,45.2238281 L57.4826388,44.7632813 L57.0220919,44.7632813 L56.6383029,45.2238281 L55.9474826,45.3773438 L55.1031466,45.3773438 L54.4890841,45.2238281 L54.1052951,44.7632813 L53.6447482,44.7632813 L53.2609591,45.2238281 L52.5701388,45.3773438 L51.4974911,45.3773438 L50.5906332,45.3773438 L49.9853754,45.3773438 L49.1927951,45.3773438 C49.2268402,45.3443039 48.5787326,45.2238281 48.5787326,45.2238281 L48.1949435,44.7632813 L47.5041232,44.5330078 L46.8900607,44.3794922 L46.5062716,43.9189453 L46.0457247,43.5351563 L45.6619357,43.0746094 L45.2013888,42.6908203 L45.0478732,42.0767578 L45.0478732,41.2324219 L45.2013888,40.5416016 L45.6619357,40.1578125 L46.0457247,39.6972656 L46.5062716,39.3134766 L46.8900607,38.8529297 L47.5041232,38.6226563 L48.1949435,38.4691406 L48.5787326,38.0085938 L49.0392794,37.6248047 L49.4230685,37.1642578 L49.8836154,36.7804688 L50.2674044,36.3199219 L50.7279513,35.9361328 L50.9582247,35.3220703 L50.9582247,34.6998663 L50.9582247,33.9150441 L50.9582247,32.9400109 L50.9582247,32.3075544 L50.9582247,31.4683352 L50.9582247,30.5891232 L50.9582247,29.8138742 L50.9582247,29.023684 L50.9582247,28.1238047 L50.9582247,27.0039211 L50.9582247,26.034375 C50.9582249,25.8460125 51.1117404,25.3435547 51.1117404,25.3435547 L51.5722872,24.9597656 L51.8025607,24.3457031 L51.8025607,23.5013672 L51.5722872,22.8105469 L51.1117404,22.4267578 L50.9582247,21.8126953 L50.9582247,21.0290912 L50.9582247,20.3358854 L50.9582247,19.6347167 L50.9582247,18.9575258 L50.9582247,18.0005653 L50.9582247,17.3553148 L50.9582247,16.7466797 L50.7279513,16.0558594 L50.2674044,15.6720703 L50.1138888,15.0580078 L49.8836154,14.3671875 L49.4230685,13.9833984 L49.0392794,13.5228516 L48.5787326,13.1390625 L48.1949435,12.6785156 L47.7343966,12.2947266 L47.3506076,11.8341797 L46.8900607,11.4503906 L46.5062716,10.9898438 L45.8154513,10.7595703 L45.2013888,10.6060547 L45.2013888,10.1455078 L45.6619357,9.76171875 L45.8922091,9.14765625 L45.8922091,8.30332031 L46.0457247,7.6125 L46.5062716,7.22871094 L46.8900607,6.76816406 L47.3506076,6.384375 L47.7343966,5.92382813 L48.3484591,5.69355469 L49.0392794,5.54003906 L49.4230685,5.07949219 L50.037131,4.84921875 L50.7279513,5.07949219 L51.1117404,5.54003906 L51.7258029,5.69355469 L52.5701388,5.69355469 L53.2609591,5.92382813 L53.6447482,6.384375 L54.2588107,6.53789063 L54.949631,6.76816406 L55.3334201,7.22871094 L55.7939669,7.6125 L56.177756,8.07304688 L56.6383029,8.45683594 L57.0220919,8.91738281 L57.4826388,9.30117188 L57.8664279,9.76171875 L58.3269747,10.1455078 L58.7107638,10.6060547 L59.1713107,10.6060547 L59.5550997,10.1455078 L60.1691622,9.91523438 L61.0134982,9.91523438 L61.7043185,9.76171875 L62.0881076,9.30117188 L62.5486544,8.91738281 L62.9324435,8.45683594 L63.3929904,8.07304688 L63.7767794,7.6125 L64.3908419,7.38222656 L65.0816622,7.22871094 L65.4654513,6.76816406 L66.0795138,6.53789063 L66.6456679,6.53789063 L67.302102,6.53789063 L68.0591887,6.53789063 L68.6125216,6.53789063 L69.3033419,6.384375 L69.687131,5.92382813 L70.3011935,5.69355469 L70.9908197,5.69355469 L71.5481222,5.69355469 L72.0436015,5.69355469 L72.7858364,5.69355469 L73.6785372,5.69355469 L74.3693576,5.92382813 L74.7531466,6.384375 L75.3672091,6.53789063 L76.0580294,6.76816406 L76.4418185,7.22871094 L77.055881,7.38222656 L77.7467013,7.6125 L78.1304904,8.07304688 L78.5910372,8.45683594 L78.9748263,8.91738281 L79.4353732,9.30117188 L79.8191622,9.76171875 L80.2797091,10.1455078 L80.5099826,10.8363281 L80.6634982,11.4503906 L81.1240451,11.8341797 L81.3543185,12.525 L81.5078341,13.1390625 L81.968381,13.5228516 L82.1986544,14.2136719 L82.1986544,14.9400989 L82.1986544,15.9791025 L82.1986544,16.7466797 L81.968381,17.3607422 L81.5078341,17.7445313 L81.5078341,18.2050781 L81.968381,18.5888672 L81.968381,19.0494141 L81.5078341,19.4332031 L81.3543185,20.1240234 L81.3543185,20.9653893 L81.3543185,21.8126953 C81.3543193,22.4267582 81.5078341,22.4267578 81.5078341,22.4267578 L81.968381,22.8105469 L82.1986544,23.5013672 L82.1986544,24.3423076 L82.1986544,25.2192828 L82.1986544,25.9295772 L82.1986544,27.0713807 L82.1986544,27.6846908 L82.1986544,28.5673828 C82.1986529,29.1814445 82.3521701,29.1814453 82.3521701,29.1814453 L82.8127169,29.5652344 L83.0429904,30.2560547 L83.0429904,31.1003906 L82.8127169,31.7144531 L82.3521701,32.0982422 L82.1986544,32.7890625 L82.3521701,33.403125 L82.8127169,33.7869141 L83.0429904,34.4777344 L83.196506,35.0917969 L83.6570529,35.4755859 L84.0408419,35.9361328 L84.6549044,36.0896484 L85.3457247,36.3199219 L85.7295138,36.7804688 L86.3435763,36.9339844 L87.0343966,37.1642578 L87.2646701,37.8550781 L87.4181857,38.4691406 L87.8787326,38.8529297 L88.109006,39.54375 L87.8787326,40.1578125 L87.4181857,40.5416016 Z M130.488924,32.0982422 L130.335408,32.7890625 L130.335408,33.6886606 L130.335408,34.4777344 L130.105135,35.0917969 L129.644588,35.4755859 L129.491072,36.1664063 L129.491072,36.9742631 L129.491072,37.8550781 L129.260799,38.4691406 L128.800252,38.8529297 L128.646736,39.54375 L128.416463,40.1578125 L127.955916,40.5416016 L127.572127,41.0021484 L127.11158,41.3859375 L126.727791,41.8464844 L126.267244,42.2302734 L125.883455,42.6908203 L125.422908,43.0746094 L125.039119,43.5351563 L124.578572,43.9189453 L124.194783,44.3794922 L123.503963,44.5330078 L122.8899,44.7632813 L122.506111,45.2238281 L121.815291,45.3773438 L120.970955,45.3773438 L120.356892,45.6076172 L119.973103,46.0681641 L119.282283,46.2216797 L118.624185,46.2216797 L117.941566,46.2216797 L117.118507,46.2216797 L116.442043,46.2216797 L115.707548,46.2216797 L115.060603,46.2216797 L114.446541,46.0681641 L114.062752,45.6076172 L113.371932,45.3773438 L112.527596,45.3773438 L111.913533,45.2238281 L111.529744,44.7632813 L110.838924,44.5330078 L110.224861,44.3794922 L109.841072,43.9189453 L109.380525,43.5351563 L108.996736,43.0746094 L108.536189,42.6908203 L108.1524,42.2302734 L107.691853,41.8464844 L107.308064,41.3859375 L106.847517,41.0021484 L106.463728,40.5416016 L106.003182,40.1578125 L105.619392,39.6972656 L105.158846,39.3134766 L105.00533,38.6994141 L104.775057,38.0085938 L104.31451,37.6248047 L104.160994,37.0107422 L104.160994,36.1664063 L103.930721,35.4755859 L103.470174,35.0917969 L103.316658,34.4777344 L103.316658,33.7440534 L103.316658,32.7890625 C103.316658,32.4311707 103.470174,32.0982422 103.470174,32.0982422 L103.930721,31.7144531 L104.160994,31.1003906 L104.160994,30.3962639 L104.160994,29.5150941 L104.160994,28.4306574 L104.160994,27.7230469 C104.160994,27.5442917 104.31451,27.0322266 104.31451,27.0322266 L104.775057,26.6484375 L105.00533,26.034375 L104.775057,25.3435547 L104.31451,24.9597656 L104.160994,24.3457031 L104.31451,23.6548828 L104.775057,23.2710938 L105.00533,22.6570313 L105.00533,21.5411634 L105.00533,20.6271416 L105.00533,19.9922422 L105.00533,19.2567085 L105.00533,18.4955965 L105.00533,17.6477584 L105.00533,16.8000002 L105.00533,15.9023438 L104.775057,15.2115234 L104.31451,14.8277344 L104.160994,14.2136719 L103.930721,13.5228516 L103.470174,13.1390625 L103.086385,12.6785156 L102.395564,12.4482422 L101.781502,12.2947266 L101.397713,11.8341797 L100.706892,11.6039063 L100.053357,11.6039063 L99.4288483,11.6039063 L98.8200067,11.6039063 L98.1738846,11.6039063 L97.5598221,11.4503906 L97.1760331,10.9898438 L96.7154862,10.6060547 L96.3316971,10.1455078 L95.8711503,9.76171875 L95.4873612,9.30117188 L95.0268143,8.91738281 L94.8732987,8.30332031 L95.0268143,7.6125 L95.4873612,7.22871094 L95.8711503,6.76816406 L96.3316971,6.384375 L96.7154862,5.92382813 L97.1760331,5.54003906 L97.5598221,5.07949219 L98.1738846,4.84921875 L98.7337601,4.84921875 L99.2183875,4.84921875 L99.7019758,4.84921875 L100.17853,4.84921875 L100.604088,4.84921875 L101.403807,4.84921875 L102.002657,4.84921875 L102.395564,4.84921875 L103.086385,5.07949219 L103.470174,5.54003906 L103.930721,5.54003906 L104.31451,5.07949219 L104.775057,4.69570313 L105.00533,4.08164063 L105.158846,3.39082031 L105.619392,3.00703125 L105.849666,2.39296875 L106.003182,1.70214844 L106.617244,1.471875 L107.308064,1.31835938 L107.538338,0.704296875 L107.691853,0.0134765625 L108.1524,0.0134765625 L108.382674,0.704296875 L108.536189,1.31835938 L108.996736,1.70214844 L109.380525,2.16269531 L109.841072,2.54648438 L110.071346,3.23730469 L110.071346,4.08164063 L110.224861,4.69570313 L110.685408,5.07949219 L111.069197,5.54003906 L111.68326,5.69355469 L112.37408,5.92382813 L112.757869,6.384375 L113.218416,6.384375 L113.602205,5.92382813 L114.216267,5.69355469 L115.004627,5.69355469 L115.904939,5.69355469 L116.59576,5.92382813 L116.979549,6.384375 L117.593611,6.53789063 L118.251782,6.53789063 L118.732093,6.53789063 L119.389054,6.53789063 C119.610092,6.53789063 119.83113,6.53789063 120.052169,6.53789063 C120.203765,6.53789063 120.381803,6.53789063 120.572446,6.53789063 C120.764922,6.53789063 120.957398,6.53789063 121.149874,6.53789063 C121.352135,6.53789063 121.635686,6.53789063 121.902513,6.53789063 L122.659627,6.53789063 C122.89757,6.53789063 123.350447,6.76816406 123.350447,6.76816406 L123.734236,7.22871094 L124.194783,7.6125 L124.578572,8.07304688 L125.039119,8.45683594 L125.269392,9.14765625 L125.039119,9.76171875 L124.578572,10.1455078 L124.194783,10.6060547 L123.734236,10.9898438 L123.350447,11.4503906 L122.659627,11.6039063 L121.9882,11.6039063 L121.349384,11.6039063 L120.780988,11.6039063 C120.593601,11.6039063 120.406214,11.6039063 120.218827,11.6039063 L119.442448,11.6039063 L118.774137,11.6039063 L118.176246,11.6039063 L117.520245,11.6039063 L116.836667,11.6039063 L116.238776,11.6039063 C116.051863,11.6039063 115.868649,11.6039063 115.690922,11.6039063 C115.490622,11.6039063 115.297292,11.6039063 115.113494,11.6039063 L114.536066,11.6039063 C114.374907,11.6039063 114.226441,11.6039063 114.093322,11.6039063 C113.645967,11.6039063 113.371932,11.6039063 113.371932,11.6039063 L112.757869,11.8341797 L112.37408,12.2947266 L111.913533,12.6785156 L111.529744,13.1390625 L111.069197,13.5228516 L110.685408,13.9833984 L110.224861,14.3671875 L110.071346,15.0580078 L110.071346,15.9902896 L110.071346,16.7466797 C110.071345,17.2189228 110.224861,17.3607422 110.224861,17.3607422 L110.685408,17.7445313 L110.685408,18.2050781 L110.224861,18.5888672 L110.071346,19.2796875 L110.071346,20.1730483 C110.071346,20.3950552 110.071346,20.6346766 110.071346,20.8877198 L110.071346,21.6569848 L110.071346,22.3905202 L110.071346,23.1873618 L110.071346,23.9709346 L110.071346,24.6535534 L110.071346,25.4737351 L110.071346,26.265381 L110.071346,26.9132294 L110.071346,27.5442921 C110.071346,28.1742542 110.071346,28.5673828 110.071346,28.5673828 L110.224861,29.1814453 L110.685408,29.5652344 L110.915682,30.2560547 L110.915682,31.1003906 L111.069197,31.7144531 L111.529744,32.0982422 L111.760017,32.7890625 L111.760017,33.6333984 L111.913533,34.2474609 L112.37408,34.63125 L112.604353,35.3220703 L112.757869,35.9361328 L113.371932,36.0896484 L114.062752,36.3199219 L114.446541,36.7804688 L115.060603,36.9339844 L115.742318,36.9339844 L116.226866,36.9339844 L116.683917,36.9339844 L117.041852,36.9339844 L117.727348,36.9339844 L118.437947,36.9339844 L119.128767,36.7804688 L119.512557,36.3199219 L119.973103,35.9361328 L120.356892,35.4755859 L120.817439,35.0917969 L121.047713,34.4777344 L121.201228,33.7869141 L121.661775,33.403125 L121.892049,32.7890625 L121.892049,31.9447266 L122.045564,31.2539063 L122.506111,30.8701172 L122.736385,30.2560547 L122.8899,29.5652344 L123.350447,29.1814453 L123.734236,28.7208984 L124.348299,28.490625 L125.039119,28.3371094 L125.422908,27.8765625 L126.036971,27.6462891 L126.881307,27.6462891 L127.572127,27.8765625 L127.955916,28.3371094 L128.569978,28.490625 L129.260799,28.7208984 L129.644588,29.1814453 L130.105135,29.5652344 L130.335408,30.2560547 L130.488924,30.8701172 L130.949471,31.2539063 L130.949471,31.7144531 L130.488924,32.0982422 Z" id="ant" fill="#000000"></path>
            </g>
            <path d="M18.25,19.5 C18.25,15.7677688 15.0000951,12.75 11,12.75 C6.99990488,12.75 3.75,15.7677688 3.75,19.5 C3.75,23.2322312 6.99990488,26.25 11,26.25 C15.0000951,26.25 18.25,23.2322312 18.25,19.5 Z M4.25,19.5 C4.25,16.0525294 7.26810863,13.25 11,13.25 C14.7318914,13.25 17.75,16.0525294 17.75,19.5 C17.75,22.9474706 14.7318914,25.75 11,25.75 C7.26810863,25.75 4.25,22.9474706 4.25,19.5 Z" id="Oval-1" fill="#000000" sketch:type="MSShapeGroup"></path>
            <path d="M89.25,8.5 C89.25,4.21605787 85.5528716,0.75 81,0.75 C76.4471284,0.75 72.75,4.21605787 72.75,8.5 C72.75,12.7839421 76.4471284,16.25 81,16.25 C85.5528716,16.25 89.25,12.7839421 89.25,8.5 Z M73.25,8.5 C73.25,4.49967088 76.7163156,1.25 81,1.25 C85.2836844,1.25 88.75,4.49967088 88.75,8.5 C88.75,12.5003291 85.2836844,15.75 81,15.75 C76.7163156,15.75 73.25,12.5003291 73.25,8.5 Z" id="Oval-2" fill="#000000" sketch:type="MSShapeGroup"></path>
            <path d="M160.25,11 C160.25,5.33348375 155.208168,0.75 149,0.75 C142.791832,0.75 137.75,5.33348375 137.75,11 C137.75,16.6665162 142.791832,21.25 149,21.25 C155.208168,21.25 160.25,16.6665162 160.25,11 Z M138.25,11 C138.25,5.62082125 143.057903,1.25 149,1.25 C154.942097,1.25 159.75,5.62082125 159.75,11 C159.75,16.3791787 154.942097,20.75 149,20.75 C143.057903,20.75 138.25,16.3791787 138.25,11 Z" id="Oval-3" fill="#000000" sketch:type="MSShapeGroup"></path>
            <path d="M160.25,76.5 C160.25,72.7677688 157.000095,69.75 153,69.75 C148.999905,69.75 145.75,72.7677688 145.75,76.5 C145.75,80.2322312 148.999905,83.25 153,83.25 C157.000095,83.25 160.25,80.2322312 160.25,76.5 Z M146.25,76.5 C146.25,73.0525294 149.268109,70.25 153,70.25 C156.731891,70.25 159.75,73.0525294 159.75,76.5 C159.75,79.9474706 156.731891,82.75 153,82.75 C149.268109,82.75 146.25,79.9474706 146.25,76.5 Z" id="Oval-4" fill="#000000" sketch:type="MSShapeGroup"></path>
            <path d="M95.25,76 C95.25,70.3362795 90.4344065,65.75 84.5,65.75 C78.5655935,65.75 73.75,70.3362795 73.75,76 C73.75,81.6637205 78.5655935,86.25 84.5,86.25 C90.4344065,86.25 95.25,81.6637205 95.25,76 Z M74.25,76 C74.25,70.6180255 78.8364268,66.25 84.5,66.25 C90.1635732,66.25 94.75,70.6180255 94.75,76 C94.75,81.3819745 90.1635732,85.75 84.5,85.75 C78.8364268,85.75 74.25,81.3819745 74.25,76 Z" id="Oval-5" fill="#000000" sketch:type="MSShapeGroup"></path>
            <path d="M20.25,75 C20.25,70.9919338 16.7764995,67.75 12.5,67.75 C8.22350046,67.75 4.75,70.9919338 4.75,75 C4.75,79.0080662 8.22350046,82.25 12.5,82.25 C16.7764995,82.25 20.25,79.0080662 20.25,75 Z M5.25,75 C5.25,71.2760797 8.49222829,68.25 12.5,68.25 C16.5077717,68.25 19.75,71.2760797 19.75,75 C19.75,78.7239203 16.5077717,81.75 12.5,81.75 C8.49222829,81.75 5.25,78.7239203 5.25,75 Z" id="Oval-6" fill="#000000" sketch:type="MSShapeGroup"></path>
            <path d="M23.25,139 C23.25,132.786797 18.2132034,127.75 12,127.75 C5.78679656,127.75 0.75,132.786797 0.75,139 C0.75,145.213203 5.78679656,150.25 12,150.25 C18.2132034,150.25 23.25,145.213203 23.25,139 Z M1.25,139 C1.25,133.062939 6.06293894,128.25 12,128.25 C17.9370611,128.25 22.75,133.062939 22.75,139 C22.75,144.937061 17.9370611,149.75 12,149.75 C6.06293894,149.75 1.25,144.937061 1.25,139 Z" id="Oval-7" fill="#000000" sketch:type="MSShapeGroup"></path>
            <path d="M95.2429209,133.141624 C95.5537927,127.209836 90.7562698,122.141736 84.5337404,121.815627 C78.311211,121.489518 73.0102086,126.028377 72.6993368,131.960165 C72.388465,137.891953 77.1859879,142.960053 83.4085173,143.286162 C89.6310467,143.612271 94.932049,139.073412 95.2429209,133.141624 Z M73.1986516,131.986333 C73.4947711,126.336036 78.555388,122.003001 84.5075724,122.314942 C90.4597567,122.626883 95.0397256,127.465159 94.7436061,133.115456 C94.4474866,138.765754 89.3868696,143.098788 83.4346853,142.786847 C77.4825009,142.474907 72.902532,137.63663 73.1986516,131.986333 Z" id="Oval-8" fill="#000000" sketch:type="MSShapeGroup"></path>
            <path d="M167.728023,135.062479 C168.038327,129.141533 163.482117,124.089864 157.551662,123.779062 C151.621208,123.468261 146.561914,128.016002 146.25161,133.936948 C145.941307,139.857894 150.497517,144.909562 156.427971,145.220364 C162.358426,145.531166 167.41772,140.983425 167.728023,135.062479 Z M146.750925,133.963116 C147.046767,128.318121 151.870617,123.982018 157.525494,124.278377 C163.180372,124.574737 167.52455,129.391317 167.228709,135.036311 C166.932867,140.681305 162.109017,145.017409 156.454139,144.72105 C150.799262,144.42469 146.455083,139.60811 146.750925,133.963116 Z" id="Oval-9" fill="#000000" sketch:type="MSShapeGroup"></path>
        </g>
    </g>
</svg>